<mxfile host="app.diagrams.net" modified="2024-05-03T08:39:37.149Z" agent="Mozilla/5.0 (Windows NT 10.0; Win64; x64) AppleWebKit/537.36 (KHTML, like Gecko) Chrome/124.0.0.0 Safari/537.36 Edg/124.0.0.0" etag="oNN3XvFCITnpyiNvdeLL" version="24.2.5" type="github">
  <diagram name="Seite-1" id="6Bezv-uRvZzMx2sx_CN4">
    <mxGraphModel dx="925" dy="555" grid="1" gridSize="10" guides="1" tooltips="1" connect="1" arrows="1" fold="1" page="1" pageScale="1" pageWidth="827" pageHeight="1169" math="0" shadow="0">
      <root>
        <mxCell id="0" />
        <mxCell id="1" parent="0" />
        <mxCell id="b-vgWnAGVi1PlupROuwk-1" value="" style="endArrow=none;dashed=1;html=1;rounded=0;" edge="1" parent="1" source="b-vgWnAGVi1PlupROuwk-8">
          <mxGeometry width="50" height="50" relative="1" as="geometry">
            <mxPoint x="200" y="480" as="sourcePoint" />
            <mxPoint x="200" y="80" as="targetPoint" />
          </mxGeometry>
        </mxCell>
        <mxCell id="b-vgWnAGVi1PlupROuwk-2" value="" style="endArrow=none;dashed=1;html=1;rounded=0;" edge="1" parent="1">
          <mxGeometry width="50" height="50" relative="1" as="geometry">
            <mxPoint x="400" y="480" as="sourcePoint" />
            <mxPoint x="400" y="80" as="targetPoint" />
          </mxGeometry>
        </mxCell>
        <mxCell id="b-vgWnAGVi1PlupROuwk-3" value="" style="endArrow=none;dashed=1;html=1;rounded=0;" edge="1" parent="1">
          <mxGeometry width="50" height="50" relative="1" as="geometry">
            <mxPoint x="600" y="480" as="sourcePoint" />
            <mxPoint x="600" y="80" as="targetPoint" />
          </mxGeometry>
        </mxCell>
        <mxCell id="b-vgWnAGVi1PlupROuwk-5" value="User" style="rounded=0;whiteSpace=wrap;html=1;fillColor=#dae8fc;strokeColor=#6c8ebf;" vertex="1" parent="1">
          <mxGeometry x="150" y="20" width="100" height="50" as="geometry" />
        </mxCell>
        <mxCell id="b-vgWnAGVi1PlupROuwk-6" value="User" style="rounded=0;whiteSpace=wrap;html=1;fillColor=#dae8fc;strokeColor=#6c8ebf;" vertex="1" parent="1">
          <mxGeometry x="350" y="20" width="100" height="50" as="geometry" />
        </mxCell>
        <mxCell id="b-vgWnAGVi1PlupROuwk-7" value="User" style="rounded=0;whiteSpace=wrap;html=1;fillColor=#dae8fc;strokeColor=#6c8ebf;" vertex="1" parent="1">
          <mxGeometry x="550" y="20" width="100" height="50" as="geometry" />
        </mxCell>
        <mxCell id="b-vgWnAGVi1PlupROuwk-9" value="" style="endArrow=none;dashed=1;html=1;rounded=0;" edge="1" parent="1" target="b-vgWnAGVi1PlupROuwk-8">
          <mxGeometry width="50" height="50" relative="1" as="geometry">
            <mxPoint x="200" y="480" as="sourcePoint" />
            <mxPoint x="200" y="80" as="targetPoint" />
          </mxGeometry>
        </mxCell>
        <mxCell id="b-vgWnAGVi1PlupROuwk-8" value="" style="rounded=0;whiteSpace=wrap;html=1;" vertex="1" parent="1">
          <mxGeometry x="190" y="90" width="20" height="350" as="geometry" />
        </mxCell>
      </root>
    </mxGraphModel>
  </diagram>
</mxfile>
